<svg width="721" height="785" viewBox="0 0 721 785" fill="none" xmlns="http://www.w3.org/2000/svg">
<path d="M235.628 168.79C235.628 168.79 279.106 177.836 291.062 190.341C303.018 202.845 302.676 245.105 318.235 261.896C333.794 278.687 376.569 277.825 376.569 277.825L419.32 197.392C419.32 197.392 360.368 125.34 329.835 128.915C299.303 132.49 235.628 168.79 235.628 168.79Z" fill="#C5C5C5"/>
<path d="M452.885 193.306C452.885 193.306 382.608 184.361 371.196 200.458C359.783 216.555 328.812 254.113 328.812 276.912C328.812 299.711 338.24 374.83 351.439 381.537C364.638 388.243 387.667 408.66 390.834 416.561C394.002 424.462 412.7 463.382 425.744 467.408C434.248 469.941 447.73 431.22 452.885 467.408V193.306Z" fill="black"/>
<path d="M438.728 191.622C442.134 210.151 443.341 229.018 442.324 247.83C441.226 284.079 442.324 328.012 431.344 340.095C420.364 352.178 403.883 391.732 393.997 424.671C384.111 457.611 414.135 483.622 452.942 483.622V193.335L438.728 191.622Z" fill="white"/>
<path d="M452.885 425.419C452.885 425.419 420.652 421.966 420.652 436.471C420.652 450.976 438.839 465.481 452.885 465.481V425.419Z" fill="black"/>
<path d="M436.767 453.74C436.767 453.74 424.118 441.994 432.392 441.306C440.665 440.617 450.429 461.494 436.767 453.74Z" fill="black"/>
<path d="M384.54 336.356C393.224 336.356 400.264 329.096 400.264 320.141C400.264 311.185 393.224 303.926 384.54 303.926C375.857 303.926 368.817 311.185 368.817 320.141C368.817 329.096 375.857 336.356 384.54 336.356Z" fill="black"/>
<path d="M419.32 197.401C419.32 197.401 369.19 136.533 348.608 125.664C328.027 114.794 250.845 149.961 235.628 168.79C220.411 187.619 242.061 196.333 230.83 223.507C219.6 250.68 244.323 231.096 260.627 212.619C276.931 194.141 269.843 162.713 285.627 153.924C291.249 150.794 329.807 119.821 345.005 136.533C371.012 165.112 413.876 208.271 413.876 208.271L419.32 197.401Z" fill="black"/>
<path d="M452.879 193.813C452.879 193.813 522.729 183.009 534.066 202.452C545.404 221.895 576.195 267.26 576.195 294.799C576.195 322.338 565.519 381.762 552.401 389.862C539.283 397.963 506.442 437.186 503.289 446.729C500.136 456.273 490.399 453.498 477.44 458.361C468.987 461.421 469.541 472.622 460.639 473.87L452.879 193.813Z" fill="black"/>
<path d="M466.683 191.622C463.266 210.151 462.054 229.018 463.074 247.83C464.175 284.079 463.074 328.012 474.086 340.095C485.097 352.178 501.614 391.732 511.525 424.671C521.435 457.611 491.337 483.622 452.43 483.622V193.335L466.683 191.622Z" fill="white"/>
<path d="M451.43 424.986C451.43 424.986 485.43 421.484 485.43 436.196C485.43 450.909 466.243 465.622 451.43 465.622V424.986Z" fill="black"/>
<path d="M468.998 453.74C468.998 453.74 481.648 441.994 473.374 441.306C465.1 440.617 455.313 461.494 468.998 453.74Z" fill="black"/>
<path d="M521.226 336.356C529.909 336.356 536.949 329.096 536.949 320.141C536.949 311.185 529.909 303.926 521.226 303.926C512.542 303.926 505.503 311.185 505.503 320.141C505.503 329.096 512.542 336.356 521.226 336.356Z" fill="black"/>
<path d="M500.286 284.036C504.924 277.402 514.627 277.066 519.714 283.362L520.65 284.521C527.076 292.475 521.415 304.326 511.19 304.326H509.443C499.606 304.326 493.839 293.257 499.475 285.195L500.286 284.036Z" fill="white"/>
<path d="M387.052 282.82C391.69 276.186 401.393 275.849 406.48 282.146L407.416 283.305C413.842 291.259 408.181 303.11 397.956 303.11H396.209C386.372 303.11 380.605 292.04 386.241 283.979L387.052 282.82Z" fill="white"/>
<path d="M511.045 322.656C520.324 322.656 527.846 314.555 527.846 304.562C527.846 294.569 520.324 286.468 511.045 286.468C501.766 286.468 494.243 294.569 494.243 304.562C494.243 314.555 501.766 322.656 511.045 322.656Z" fill="black"/>
<path d="M510.366 304.327C512.6 304.327 514.411 302.516 514.411 300.282C514.411 298.049 512.6 296.238 510.366 296.238C508.133 296.238 506.322 298.049 506.322 300.282C506.322 302.516 508.133 304.327 510.366 304.327Z" fill="white"/>
<path d="M399.899 322.656C409.178 322.656 416.7 314.555 416.7 304.562C416.7 294.569 409.178 286.468 399.899 286.468C390.62 286.468 383.097 294.569 383.097 304.562C383.097 314.555 390.62 322.656 399.899 322.656Z" fill="black"/>
<path d="M401.174 304.327C403.408 304.327 405.218 302.516 405.218 300.282C405.218 298.049 403.408 296.238 401.174 296.238C398.941 296.238 397.13 298.049 397.13 300.282C397.13 302.516 398.941 304.327 401.174 304.327Z" fill="white"/>
<circle cx="343.5" cy="295.5" r="295.5" fill="black"/>
<path d="M407.485 67.3566C431.756 72.0143 454.855 81.4656 475.43 95.1577L480.995 98.861" stroke="white" stroke-width="30"/>
<path d="M500.675 115.023L500.331 114.69C497.323 111.777 494.066 109.135 490.596 106.792" stroke="white" stroke-width="30"/>
<g clip-path="url(#clip0_789_59358)">
<path d="M419.353 459.959L422.415 451.558C423.847 447.627 423.587 443.277 421.693 439.545C419.802 435.814 416.447 433.034 412.429 431.866L323.113 405.923L295.301 353.77C297.105 351.552 304.92 342.208 304.92 342.208C323.445 364.868 348.501 378.972 375.658 383.369C402.029 387.638 430.383 382.75 456.65 367.652C460.313 365.547 462.929 362.003 463.861 357.882C464.792 353.76 463.957 349.436 461.556 345.96L421.21 287.529C429.506 267.518 425.398 244.402 410.997 228.47L430.559 192.355C433.422 187.072 432.882 180.592 429.182 175.856C425.485 171.119 419.332 169.022 413.508 170.516L389.137 176.774L400.543 140.506C402.528 134.192 400.176 127.322 394.738 123.549C389.299 119.778 382.041 119.983 376.824 124.055L239.187 231.483L-153.982 11.6211C-184.536 -5.51561 -195.45 -44.3147 -178.314 -74.867C-170.012 -89.6674 -156.443 -100.35 -140.108 -104.945C-123.771 -109.541 -106.624 -107.5 -91.824 -99.1988C-84.5435 -95.1125 -75.3307 -97.7078 -71.2463 -104.987C-67.1617 -112.268 -69.7536 -121.48 -77.0344 -125.565C-98.8752 -137.817 -124.184 -140.827 -148.293 -134.045C-172.403 -127.265 -192.429 -111.499 -204.679 -89.6566C-229.972 -44.5628 -213.862 12.6968 -168.77 37.9871L-148.894 49.1349C-148.435 48.35 -149.345 49.9024 -148.894 49.1349C-157.096 59.2744 -169.521 77.6028 -177.454 97.9582C-189.839 129.741 -196.68 178.051 -161.989 231.349L-225.239 334.914C-227.086 337.939 -227.812 341.517 -227.289 345.023L-209.979 460.976C-208.998 467.547 -203.87 472.625 -197.456 473.664C-196.831 473.765 -196.193 473.829 -195.547 473.85L-173.901 474.59C-169.42 474.744 -165.103 472.901 -162.116 469.558C-159.128 466.217 -157.777 461.719 -158.429 457.285L-170.654 374.086L-62.0364 304.364L18.7944 369.784C18.9552 369.916 18.6273 369.66 18.7944 369.784C52.5206 394.987 89.6865 411.743 126.368 417.681C139.159 419.752 151.76 420.546 164.069 420.12L221.388 512.351C223.416 515.616 226.613 517.985 230.328 518.976L347.104 550.153C347.603 550.286 348.102 550.393 348.601 550.473C355.68 551.619 362.701 547.596 365.204 540.724L368.265 532.323C369.698 528.392 369.437 524.042 367.544 520.31C365.652 516.579 362.298 513.799 358.279 512.631L270.734 487.202L243.86 397.756C246.476 396.269 249.059 394.711 251.604 393.083L275.531 431.583C277.56 434.848 280.756 437.217 284.471 438.21L401.249 469.387C401.748 469.52 402.246 469.627 402.745 469.707C409.829 470.856 416.849 466.832 419.353 459.959Z" fill="white"/>
<path d="M527.002 451C542.442 451 555 438.44 555 423C555 407.562 542.442 395 527.002 395C511.56 395 499 407.562 499 423C499 438.44 511.56 451 527.002 451Z" fill="white"/>
</g>
<path d="M291 756.786C291 763.775 288.543 769.723 283.629 774.631C278.864 779.389 273.056 781.768 266.206 781.768H235.158C228.308 781.768 222.425 779.389 217.511 774.631C212.597 769.723 210.14 763.775 210.14 756.786V732.473C210.14 727.863 211.257 723.774 213.491 720.205C215.873 716.487 218.926 713.513 222.649 711.282C226.372 709.052 230.541 707.937 235.158 707.937H261.515C262.26 707.937 262.93 707.639 263.526 707.044C264.27 706.45 264.642 705.706 264.642 704.814V695.892C264.642 694.999 264.27 694.256 263.526 693.661C262.93 693.066 262.26 692.769 261.515 692.769H235.158C232.328 692.769 229.871 691.802 227.786 689.869C225.85 687.936 224.883 685.557 224.883 682.731V676.709C224.883 673.735 225.85 671.281 227.786 669.348C229.871 667.266 232.328 666.225 235.158 666.225H266.206C270.822 666.225 274.992 667.34 278.715 669.571C282.438 671.801 285.416 674.85 287.649 678.716C289.883 682.434 291 686.598 291 691.207V756.786ZM264.642 752.548V737.157C264.642 736.414 264.27 735.744 263.526 735.15C262.93 734.555 262.26 734.257 261.515 734.257H239.848C239.104 734.257 238.359 734.555 237.615 735.15C237.019 735.744 236.721 736.414 236.721 737.157V752.548C236.721 753.292 237.019 753.961 237.615 754.556C238.359 755.15 239.104 755.448 239.848 755.448H261.515C262.26 755.448 262.93 755.15 263.526 754.556C264.27 753.961 264.642 753.292 264.642 752.548ZM332 771.508C332 774.333 330.958 776.787 328.873 778.869C326.937 780.802 324.554 781.768 321.725 781.768H315.694C312.865 781.768 310.408 780.802 308.323 778.869C306.387 776.787 305.419 774.333 305.419 771.508V678.939C305.419 676.114 306.387 673.735 308.323 671.801C310.408 669.72 312.865 668.679 315.694 668.679H321.725C324.554 668.679 326.937 669.72 328.873 671.801C330.958 673.735 332 676.114 332 678.939V771.508ZM435.797 775.523C434.159 779.687 431.106 781.768 426.639 781.768H418.374C415.396 781.768 412.79 780.653 410.556 778.423L384.422 749.648C384.273 749.351 383.9 749.276 383.305 749.425C382.858 749.574 382.635 749.946 382.635 750.54V771.508C382.635 774.333 381.592 776.787 379.507 778.869C377.572 780.802 375.189 781.768 372.36 781.768H366.105C363.276 781.768 360.819 780.802 358.734 778.869C356.798 776.787 355.83 774.333 355.83 771.508L354.86 670.785C354.86 667.811 388.827 617.975 388.827 618.002V618L382.635 697.676C382.635 698.122 382.858 698.494 383.305 698.791C383.9 698.94 384.273 698.791 384.422 698.345L408.099 672.694C410.035 670.463 412.492 669.348 415.47 669.348H423.735C428.053 669.348 431.18 671.43 433.116 675.593C433.861 677.378 434.084 679.311 433.786 681.393C433.489 683.326 432.67 684.962 431.329 686.3L398.941 721.989C398.345 722.584 398.047 723.327 398.047 724.22C398.047 724.963 398.345 725.558 398.941 726.004L434.01 764.593C435.35 766.08 436.169 767.865 436.467 769.946C436.914 771.88 436.69 773.738 435.797 775.523ZM522.36 759.197C522.36 766.186 519.903 772.135 514.989 777.042C510.224 781.8 504.416 784.18 497.566 784.18H466.518C459.668 784.18 453.786 781.8 448.872 777.042C443.957 772.135 441.5 766.186 441.5 759.197V734.884C441.5 730.274 442.617 726.185 444.851 722.616C447.233 718.898 450.286 715.924 454.009 713.694C457.732 711.463 461.901 710.348 466.518 710.348H492.875C493.62 710.348 494.29 710.05 494.886 709.456C495.63 708.861 496.003 708.117 496.003 707.225V698.303C496.003 697.411 495.63 696.667 494.886 696.072C494.29 695.477 493.62 695.18 492.875 695.18H466.518C463.688 695.18 461.231 694.213 459.147 692.28C457.211 690.347 456.243 687.968 456.243 685.142V679.12C456.243 676.146 457.211 673.692 459.147 671.759C461.231 669.677 463.688 668.636 466.518 668.636H497.566C502.183 668.636 506.352 669.751 510.075 671.982C513.798 674.213 516.776 677.261 519.01 681.127C521.243 684.845 522.36 689.009 522.36 693.619V759.197ZM496.003 754.959V739.568C496.003 738.825 495.63 738.156 494.886 737.561C494.29 736.966 493.62 736.668 492.875 736.668H471.209C470.464 736.668 469.719 736.966 468.975 737.561C468.379 738.156 468.081 738.825 468.081 739.568V754.959C468.081 755.703 468.379 756.372 468.975 756.967C469.719 757.561 470.464 757.859 471.209 757.859H492.875C493.62 757.859 494.29 757.561 494.886 756.967C495.63 756.372 496.003 755.703 496.003 754.959Z" fill="black"/>
<path d="M164.261 757.695H191.981L204.825 784.02H145.052C142.371 784.02 139.989 783.053 137.904 781.12C135.968 779.038 135 776.584 135 773.758V643.473C135 642.713 135.063 641.988 135.189 641.296L161.581 695.389V754.795C161.581 756.729 162.475 757.695 164.261 757.695Z" fill="black"/>
<defs>
<clipPath id="clip0_789_59358">
<rect width="721" height="593" fill="white" transform="translate(0 24.6216)"/>
</clipPath>
</defs>
</svg>
