<svg width="388" height="167" viewBox="0 0 388 167" fill="none" xmlns="http://www.w3.org/2000/svg">
<path d="M156 138.786C156 145.775 153.543 151.723 148.629 156.631C143.864 161.389 138.056 163.768 131.206 163.768H100.158C93.3076 163.768 87.4255 161.389 82.5113 156.631C77.5972 151.723 75.1401 145.775 75.1401 138.786L75.1401 114.473C75.1401 109.863 76.257 105.774 78.4907 102.205C80.8733 98.4871 83.926 95.513 87.6488 93.2825C91.3717 91.0519 95.5413 89.9366 100.158 89.9366H126.515C127.26 89.9366 127.93 89.6392 128.526 89.0444C129.27 88.4496 129.642 87.706 129.642 86.8138V77.8916C129.642 76.9994 129.27 76.2559 128.526 75.661C127.93 75.0662 127.26 74.7688 126.515 74.7688H100.158C97.3282 74.7688 94.8711 73.8022 92.7864 71.8691C90.8505 69.9359 89.8825 67.5566 89.8825 64.7313V58.7087C89.8825 55.7346 90.8505 53.281 92.7864 51.3478C94.8711 49.266 97.3282 48.225 100.158 48.225H131.206C135.822 48.225 139.992 49.3403 143.715 51.5709C147.438 53.8015 150.416 56.8499 152.649 60.7162C154.883 64.4338 156 68.5976 156 73.2074V138.786ZM129.642 134.548V119.157C129.642 118.414 129.27 117.744 128.526 117.15C127.93 116.555 127.26 116.257 126.515 116.257H104.848C104.104 116.257 103.359 116.555 102.615 117.15C102.019 117.744 101.721 118.414 101.721 119.157V134.548C101.721 135.292 102.019 135.961 102.615 136.556C103.359 137.15 104.104 137.448 104.848 137.448H126.515C127.26 137.448 127.93 137.15 128.526 136.556C129.27 135.961 129.642 135.292 129.642 134.548ZM197 153.508C197 156.333 195.958 158.787 193.873 160.869C191.937 162.802 189.554 163.768 186.725 163.768H180.694C177.865 163.768 175.408 162.802 173.323 160.869C171.387 158.787 170.419 156.333 170.419 153.508V60.9392C170.419 58.1138 171.387 55.7345 173.323 53.8014C175.408 51.7195 177.865 50.6786 180.694 50.6786H186.725C189.554 50.6786 191.937 51.7195 193.873 53.8014C195.958 55.7345 197 58.1138 197 60.9392V153.508ZM300.797 157.523C299.159 161.687 296.106 163.768 291.639 163.768H283.374C280.396 163.768 277.79 162.653 275.556 160.423L249.422 131.648C249.273 131.351 248.9 131.276 248.305 131.425C247.858 131.574 247.635 131.946 247.635 132.54V153.508C247.635 156.333 246.592 158.787 244.507 160.869C242.572 162.802 240.189 163.768 237.36 163.768H231.105C228.276 163.768 225.819 162.802 223.734 160.869C221.798 158.787 220.83 156.333 220.83 153.508L219.86 52.7854C219.86 49.8113 253.827 -0.0253724 253.827 0.00237568V0L247.635 79.676C247.635 80.1221 247.858 80.4939 248.305 80.7913C248.9 80.94 249.273 80.7913 249.422 80.3452L273.099 54.6936C275.035 52.463 277.492 51.3478 280.47 51.3478H288.735C293.053 51.3478 296.18 53.4296 298.116 57.5933C298.861 59.3778 299.084 61.311 298.786 63.3928C298.489 65.326 297.67 66.9618 296.329 68.3001L263.941 103.989C263.345 104.584 263.047 105.327 263.047 106.22C263.047 106.963 263.345 107.558 263.941 108.004L299.01 146.593C300.35 148.08 301.169 149.865 301.467 151.946C301.914 153.88 301.69 155.738 300.797 157.523ZM387.36 141.197C387.36 148.186 384.903 154.135 379.989 159.042C375.224 163.8 369.416 166.18 362.566 166.18H331.518C324.668 166.18 318.786 163.8 313.872 159.042C308.957 154.135 306.5 148.186 306.5 141.197V116.884C306.5 112.274 307.617 108.185 309.851 104.616C312.233 100.898 315.286 97.9242 319.009 95.6936C322.732 93.463 326.901 92.3477 331.518 92.3477H357.875C358.62 92.3477 359.29 92.0503 359.886 91.4555C360.63 90.8607 361.003 90.1172 361.003 89.2249V80.3027C361.003 79.4105 360.63 78.667 359.886 78.0722C359.29 77.4774 358.62 77.1799 357.875 77.1799H331.518C328.688 77.1799 326.231 76.2134 324.147 74.2802C322.211 72.347 321.243 69.9678 321.243 67.1424V61.1198C321.243 58.1457 322.211 55.6921 324.147 53.7589C326.231 51.6771 328.688 50.6361 331.518 50.6361H362.566C367.183 50.6361 371.352 51.7514 375.075 53.982C378.798 56.2126 381.776 59.261 384.01 63.1273C386.243 66.8449 387.36 71.0087 387.36 75.6186V141.197ZM361.003 136.959V121.568C361.003 120.825 360.63 120.156 359.886 119.561C359.29 118.966 358.62 118.668 357.875 118.668H336.209C335.464 118.668 334.719 118.966 333.975 119.561C333.379 120.156 333.081 120.825 333.081 121.568V136.959C333.081 137.703 333.379 138.372 333.975 138.967C334.719 139.561 335.464 139.859 336.209 139.859H357.875C358.62 139.859 359.29 139.561 359.886 138.967C360.63 138.372 361.003 137.703 361.003 136.959Z" fill="black"/>
<path d="M29.2615 139.695H56.9807L69.8246 166.02H10.0516C7.37121 166.02 4.98859 165.053 2.90381 163.12C0.967936 161.038 0 158.584 0 155.758L0 25.4726C0 24.7133 0.063078 23.9879 0.189234 23.2964L26.581 77.3886L26.581 136.795C26.581 138.729 27.4745 139.695 29.2615 139.695Z" fill="black"/>
</svg>
