<svg width="591" height="591" viewBox="0 0 591 591" fill="none" xmlns="http://www.w3.org/2000/svg">
<mask id="mask0_789_59423" style="mask-type:alpha" maskUnits="userSpaceOnUse" x="0" y="0" width="591" height="591">
<rect width="591" height="591" fill="#D9D9D9"/>
</mask>
<g mask="url(#mask0_789_59423)">
<mask id="mask1_789_59423" style="mask-type:alpha" maskUnits="userSpaceOnUse" x="0" y="0" width="597" height="597">
<circle cx="298.5" cy="298.5" r="298.5" fill="#D9D9D9"/>
</mask>
<g mask="url(#mask1_789_59423)">
<path d="M192.645 171.79C192.645 171.79 236.561 180.836 248.638 193.341C260.715 205.845 260.37 248.105 276.086 264.896C291.803 281.687 335.009 280.825 335.009 280.825L378.192 200.392C378.192 200.392 318.645 128.34 287.804 131.915C256.963 135.49 192.645 171.79 192.645 171.79Z" fill="#C5C5C5"/>
<path d="M412.096 196.306C412.096 196.306 341.109 187.361 329.581 203.458C318.053 219.555 286.769 257.113 286.769 279.912C286.769 302.711 296.293 377.83 309.625 384.537C322.958 391.243 346.219 411.66 349.418 419.561C352.618 427.462 371.505 466.382 384.681 470.408C393.271 472.941 406.888 434.22 412.096 470.408V196.306Z" fill="black"/>
<path d="M397.796 194.622C401.236 213.151 402.455 232.018 401.428 250.83C400.319 287.079 401.428 331.012 390.338 343.095C379.247 355.178 362.599 394.732 352.613 427.671C342.627 460.611 372.955 486.622 412.154 486.622V196.335L397.796 194.622Z" fill="white"/>
<path d="M412.096 428.419C412.096 428.419 379.537 424.966 379.537 439.471C379.537 453.976 397.908 468.481 412.096 468.481V428.419Z" fill="black"/>
<path d="M395.815 456.74C395.815 456.74 383.038 444.994 391.395 444.306C399.753 443.617 409.615 464.494 395.815 456.74Z" fill="black"/>
<path d="M343.061 339.356C351.832 339.356 358.943 332.096 358.943 323.141C358.943 314.185 351.832 306.926 343.061 306.926C334.29 306.926 327.179 314.185 327.179 323.141C327.179 332.096 334.29 339.356 343.061 339.356Z" fill="black"/>
<path d="M378.192 200.401C378.192 200.401 327.555 139.533 306.766 128.664C285.977 117.794 208.015 152.961 192.644 171.79C177.274 190.619 199.142 199.333 187.798 226.507C176.455 253.68 201.428 234.096 217.896 215.619C234.365 197.141 227.205 165.713 243.148 156.924C248.827 153.794 287.775 122.821 303.127 139.533C329.396 168.112 372.693 211.271 372.693 211.271L378.192 200.401Z" fill="black"/>
<path d="M412.09 196.813C412.09 196.813 482.645 186.009 494.097 205.452C505.55 224.895 536.651 270.26 536.651 297.799C536.651 325.338 525.868 384.762 512.617 392.862C499.367 400.963 466.194 440.186 463.009 449.729C459.824 459.273 449.989 456.498 436.899 461.361C428.36 464.421 428.921 475.622 419.928 476.87L412.09 196.813Z" fill="black"/>
<path d="M426.034 194.622C422.582 213.151 421.358 232.018 422.388 250.83C423.5 287.079 422.388 331.012 433.511 343.095C444.633 355.178 461.317 394.732 471.328 427.671C481.338 460.611 450.936 486.622 411.636 486.622V196.335L426.034 194.622Z" fill="white"/>
<path d="M410.626 427.986C410.626 427.986 444.969 424.484 444.969 439.196C444.969 453.909 425.589 468.622 410.626 468.622V427.986Z" fill="black"/>
<path d="M428.372 456.74C428.372 456.74 441.149 444.994 432.792 444.306C424.435 443.617 414.549 464.494 428.372 456.74Z" fill="black"/>
<path d="M481.127 339.356C489.898 339.356 497.009 332.096 497.009 323.141C497.009 314.185 489.898 306.926 481.127 306.926C472.356 306.926 465.245 314.185 465.245 323.141C465.245 332.096 472.356 339.356 481.127 339.356Z" fill="black"/>
<path d="M460.1 286.86C464.741 280.289 474.37 279.953 479.457 286.187L480.508 287.475C486.991 295.418 481.338 307.326 471.085 307.326H469.125C459.262 307.326 453.501 296.204 459.19 288.148L460.1 286.86Z" fill="white"/>
<path d="M345.722 285.644C350.364 279.072 359.992 278.737 365.079 284.971L366.13 286.258C372.613 294.202 366.961 306.11 356.708 306.11H354.747C344.884 306.11 339.123 294.988 344.813 286.932L345.722 285.644Z" fill="white"/>
<path d="M470.843 325.656C480.216 325.656 487.814 317.555 487.814 307.562C487.814 297.569 480.216 289.468 470.843 289.468C461.47 289.468 453.872 297.569 453.872 307.562C453.872 317.555 461.47 325.656 470.843 325.656Z" fill="black"/>
<path d="M470.158 307.327C472.414 307.327 474.243 305.516 474.243 303.282C474.243 301.049 472.414 299.238 470.158 299.238C467.902 299.238 466.073 301.049 466.073 303.282C466.073 305.516 467.902 307.327 470.158 307.327Z" fill="white"/>
<path d="M358.574 325.656C367.947 325.656 375.546 317.555 375.546 307.562C375.546 297.569 367.947 289.468 358.574 289.468C349.201 289.468 341.603 297.569 341.603 307.562C341.603 317.555 349.201 325.656 358.574 325.656Z" fill="black"/>
<path d="M359.863 307.327C362.119 307.327 363.948 305.516 363.948 303.282C363.948 301.049 362.119 299.238 359.863 299.238C357.607 299.238 355.778 301.049 355.778 303.282C355.778 305.516 357.607 307.327 359.863 307.327Z" fill="white"/>
<ellipse cx="292.515" cy="295.5" rx="298.485" ry="295.5" fill="black"/>
<path d="M366.237 70.3566C390.754 75.0144 414.085 84.465 434.868 98.1572L440.49 101.861" stroke="white" stroke-width="30"/>
<path d="M460.369 118.023L460.022 117.69C456.984 114.778 453.693 112.135 450.188 109.792" stroke="white" stroke-width="30"/>
<g clip-path="url(#clip0_789_59423)">
<path d="M366.104 461.959L369.197 453.558C370.644 449.627 370.381 445.277 368.468 441.545C366.557 437.814 363.169 435.034 359.11 433.866L268.892 407.923L240.799 355.77C242.621 353.552 250.515 344.208 250.515 344.208C269.228 366.868 294.537 380.972 321.968 385.369C348.605 389.638 377.245 384.75 403.777 369.652C407.478 367.547 410.12 364.003 411.062 359.882C412.002 355.76 411.159 351.436 408.734 347.96L367.979 289.529C376.359 269.518 372.21 246.402 357.664 230.47L377.423 194.355C380.315 189.072 379.769 182.592 376.033 177.856C372.298 173.119 366.083 171.022 360.2 172.516L335.582 178.774L347.103 142.506C349.109 136.192 346.733 129.322 341.241 125.549C335.746 121.778 328.415 121.983 323.146 126.055L184.118 233.483L-213.022 13.6211C-243.884 -3.5156 -254.909 -42.3147 -237.6 -72.867C-229.214 -87.6674 -215.508 -98.3501 -199.008 -102.945C-182.506 -107.541 -165.186 -105.5 -150.236 -97.1988C-142.882 -93.1125 -133.576 -95.7078 -129.451 -102.987C-125.325 -110.268 -127.943 -119.48 -135.297 -123.565C-157.359 -135.817 -182.923 -138.827 -207.276 -132.045C-231.63 -125.265 -251.858 -109.499 -264.232 -87.6566C-289.78 -42.5628 -273.507 14.6968 -227.959 39.9871L-207.883 51.1349C-207.419 50.35 -208.338 51.9024 -207.883 51.1349C-216.167 61.2744 -228.718 79.6028 -236.731 99.9583C-249.241 131.741 -256.151 180.052 -221.11 233.349L-284.999 336.914C-286.865 339.939 -287.598 343.517 -287.07 347.023L-269.585 462.976C-268.594 469.547 -263.415 474.625 -256.935 475.664C-256.304 475.765 -255.66 475.829 -255.007 475.85L-233.142 476.59C-228.617 476.744 -224.256 474.901 -221.238 471.558C-218.22 468.217 -216.856 463.719 -217.514 459.286L-229.863 376.086L-120.148 306.364L-38.5007 371.784C-38.3383 371.916 -38.6694 371.66 -38.5007 371.784C-4.43382 396.987 33.1075 413.743 70.1596 419.681C83.0796 421.752 95.8079 422.546 108.241 422.12L166.139 514.351C168.188 517.616 171.417 519.985 175.17 520.976L293.125 552.153C293.629 552.286 294.133 552.393 294.637 552.473C301.788 553.619 308.88 549.596 311.408 542.724L314.5 534.323C315.947 530.392 315.684 526.042 313.771 522.311C311.86 518.579 308.472 515.799 304.413 514.631L215.984 489.202L188.838 399.756C191.48 398.269 194.089 396.711 196.66 395.083L220.829 433.583C222.878 436.848 226.107 439.217 229.859 440.21L347.817 471.387C348.321 471.52 348.824 471.627 349.328 471.707C356.484 472.856 363.575 468.832 366.104 461.959Z" fill="white"/>
<path d="M474.84 453C490.436 453 503.121 440.44 503.121 425C503.121 409.562 490.436 397 474.84 397C459.243 397 446.556 409.562 446.556 425C446.556 440.44 459.243 453 474.84 453Z" fill="white"/>
</g>
</g>
</g>
<defs>
<clipPath id="clip0_789_59423">
<rect width="596.97" height="543" fill="white" transform="translate(-9 27)"/>
</clipPath>
</defs>
</svg>
